<svg width="180" height="180" viewBox="0 0 180 180" fill="none" xmlns="http://www.w3.org/2000/svg" role="img" aria-label="Habit Tracker icon">
  <defs>
    <linearGradient id="bg" x1="24" y1="18" x2="160" y2="168" gradientUnits="userSpaceOnUse">
      <stop stop-color="#2563EB" />
      <stop offset="1" stop-color="#16A34A" />
    </linearGradient>
    <linearGradient id="topbar" x1="46" y1="46" x2="134" y2="70" gradientUnits="userSpaceOnUse">
      <stop stop-color="#1D4ED8" />
      <stop offset="1" stop-color="#15803D" />
    </linearGradient>
  </defs>

  <rect x="10" y="10" width="160" height="160" rx="36" fill="url(#bg)" />

  <rect x="42" y="40" width="96" height="104" rx="20" fill="white" fill-opacity="0.96" />
  <rect x="42" y="40" width="96" height="28" rx="20" fill="url(#topbar)" />

  <rect x="60" y="30" width="8" height="20" rx="4" fill="white" fill-opacity="0.9" />
  <rect x="112" y="30" width="8" height="20" rx="4" fill="white" fill-opacity="0.9" />

  <g fill="#0F172A" fill-opacity="0.12">
    <rect x="58" y="82" width="16" height="12" rx="4" />
    <rect x="82" y="82" width="16" height="12" rx="4" />
    <rect x="106" y="82" width="16" height="12" rx="4" />
    <rect x="58" y="100" width="16" height="12" rx="4" />
    <rect x="82" y="100" width="16" height="12" rx="4" />
  </g>

  <rect x="104" y="98" width="28" height="28" rx="10" fill="#16A34A" />
  <path d="M111 112.5L117.2 118.7L126 107.8" stroke="white" stroke-width="6" stroke-linecap="round" stroke-linejoin="round" />
</svg>
